<?xml version="1.0" encoding="UTF-8"?>
<!DOCTYPE svg PUBLIC "-//W3C//DTD SVG 1.1//EN" "http://www.w3.org/Graphics/SVG/1.1/DTD/svg11.dtd">
<!-- Creator: CorelDRAW -->
<svg xmlns="http://www.w3.org/2000/svg" xml:space="preserve" width="18.5208mm" height="18.5157mm" version="1.1" style="shape-rendering:geometricPrecision; text-rendering:geometricPrecision; image-rendering:optimizeQuality; fill-rule:evenodd; clip-rule:evenodd"
viewBox="0 0 109033.7 109003.68"
 xmlns:xlink="http://www.w3.org/1999/xlink"
 xmlns:xodm="http://www.corel.com/coreldraw/odm/2003">
 <defs>
  <style type="text/css">
   <![CDATA[
    .str0 {stroke:#444C54;stroke-width:1557.73;stroke-linecap:round;stroke-miterlimit:22.9256}
    .fil0 {fill:#CFF1A2}
    .fil1 {fill:#444B54;fill-rule:nonzero}
   ]]>
  </style>
 </defs>
 <g id="Layer_x0020_1">
  <metadata id="CorelCorpID_0Corel-Layer"/>
  <path class="fil0" d="M10854.63 -0.59l87323.86 0c5954.21,0 10855.21,4871.57 10855.21,10855.21l0 87293.84c0,5983.64 -4901.6,10855.21 -10855.21,10855.21l-87323.86 0c-5983.64,0 -10855.21,-4871.57 -10855.21,-10855.21l0 -87293.84c0,-5983.64 4871.57,-10855.21 10855.21,-10855.21z"/>
  <path class="fil1 str0" d="M91118.69 32893.55c0,-890.72 -452.72,-1645.44 -1339.31,-1927.43l-17248.6 -6109.04c-566.93,0 -746.48,-315.55 -1534.77,0l-33679.48 11826c-881.89,293.77 -1437.04,1175.65 -1437.04,2025.16l0 7905.19c0,1209.21 914.85,2124.06 2123.48,2124.06 1241,0 2188.82,-914.85 2188.82,-2124.06l0 -6402.8 31425.31 -11107.18 11198.43 3693.56 -29002.18 10353.63c-848.92,293.77 -1436.45,1110.89 -1436.45,2025.16 0,13371.95 0,26743.31 0,40115.25l-30151.93 -10780.45 0 -40049.32 33026.01 -11695.3c1143.27,-424.46 1730.81,-1633.08 1306.35,-2743.39 -457.43,-1143.27 -1666.05,-1699.02 -2743.97,-1274.56l-34463.05 12217.49c-849.51,261.39 -1437.63,1143.27 -1437.63,1992.78l0 43087.65c0,914.85 588.12,1730.81 1437.63,1992.78l34463.05 12217.49c549.85,182.5 891.31,156.01 1437.63,0l34463.64 -12217.49c849.51,-261.98 1404.66,-1143.27 1404.66,-1992.78l0 -43152.99c0,64.76 2.35,-1.77 -0.59,0.59zm-4279.33 41617.05l-30151.93 10715.1 0 -38546.34 30151.93 -10682.72 0 38513.96z"/>
 </g>
</svg>
