<?xml version="1.0" encoding="UTF-8"?>
<!DOCTYPE svg PUBLIC "-//W3C//DTD SVG 1.1//EN" "http://www.w3.org/Graphics/SVG/1.1/DTD/svg11.dtd">
<!-- Creator: CorelDRAW -->
<svg xmlns="http://www.w3.org/2000/svg" xml:space="preserve" width="10.0541mm" height="10.0514mm" version="1.1" style="shape-rendering:geometricPrecision; text-rendering:geometricPrecision; image-rendering:optimizeQuality; fill-rule:evenodd; clip-rule:evenodd"
viewBox="0 0 779.69 779.48"
 xmlns:xlink="http://www.w3.org/1999/xlink"
 xmlns:xodm="http://www.corel.com/coreldraw/odm/2003">
 <defs>
  <style type="text/css">
   <![CDATA[
    .str0 {stroke:#444C54;stroke-width:5.91;stroke-miterlimit:22.9256}
    .fil0 {fill:#CFF1A2}
    .fil1 {fill:#444B54;fill-rule:nonzero}
   ]]>
  </style>
 </defs>
 <g id="Layer_x0020_1">
  <metadata id="CorelCorpID_0Corel-Layer"/>
  <path class="fil0" d="M77.62 0l624.44 0c42.57,0 77.63,34.84 77.63,77.63l0 624.22c0,42.79 -35.05,77.63 -77.63,77.63l-624.44 0c-42.79,0 -77.62,-34.84 -77.62,-77.63l0 -624.22c0,-42.79 34.83,-77.63 77.62,-77.63z"/>
  <path class="fil1 str0" d="M672.23 222.98c0,-0.5 0,-1.51 0,-2.27 0,0 0,-0.5 0,-0.5 -1.01,-5.54 -4.79,-10.34 -10.34,-12.1l-133.12 -47.15c0,0 -0.25,0 -0.25,0 -3.53,-1.26 -7.81,-1.51 -11.59,0l-259.94 91.27c-6.8,2.26 -11.09,9.07 -11.09,15.63l0 61.02c0,9.33 7.06,16.39 16.39,16.39 9.59,0 16.9,-7.06 16.9,-16.39l0 -49.41 242.54 -85.72 84.21 29.75 -221.61 78.67c-6.56,2.26 -11.1,8.57 -11.1,15.63 0,0 0,0 0,0.5l0 309.1 -232.7 -83.19 0 -309.1 254.89 -90.26c8.83,-3.28 13.36,-12.61 10.08,-21.18 -3.52,-8.83 -12.85,-13.11 -21.17,-9.83l-265.99 94.29c-6.55,2.02 -11.09,8.83 -11.09,15.38l0 332.55c0,7.06 4.54,13.35 11.09,15.38l265.99 94.29c0,0 0,0 0,0 1.51,0.5 4.03,1.01 5.54,1.01 1.76,0 3.78,-0.5 5.54,-1.01l265.99 -94.29c6.55,-2.02 10.84,-8.83 10.84,-15.38l0 -333.05c0,0.5 0,0 0,0l0 0 -0.01 0.01zm-33.03 321.19l-232.7 82.69 0 -297.49 232.7 -82.44 0 297.25z"/>
 </g>
</svg>
